# xmcd
# Copyright (C) 1995-1998 Ti Kan
#
# Track frame offsets:
#       150
#       19035
#       38787
#       55355
#       69777
#       86030
#       104940
#       120495
#       137445
#       160287
#       172960
#
# Disc length: 2657 seconds
#
# Revision: 0
# Processed by: cddbd v1.4PL0 Copyright (c) Steve Scherf et al.
# Submitted via: CD-Transfer v1.0
#
DISCID=8d0a5f0b
DTITLE=Famara - Toubab Man
DYEAR=2003
DGENRE=
TTITLE0=Toubab Man
TTITLE1=In A Di Bush
TTITLE2=Mafrundee
TTITLE3=Roots No Go Die
TTITLE4=Ya Yo Mécure
TTITLE5=She So Coco
TTITLE6=Abarika
TTITLE7=Carmita Bonita
TTITLE8=Kakolobango
TTITLE9=Mayumba
TTITLE10=Toubab Groove
EXTD=
EXTT0=
EXTT1=
EXTT2=
EXTT3=
EXTT4=
EXTT5=
EXTT6=
EXTT7=
EXTT8=
EXTT9=
EXTT10=
PLAYORDER=
